<svg viewBox="0 0 669 520" xmlns="http://www.w3.org/2000/svg"
     style="font-family:-apple-system,system-ui,sans-serif;background:white;">
  <text x="334" y="22" text-anchor="middle" font-size="13" font-weight="600" fill="#222">
    Motor Learning and Sleep Consolidation Circuit Genes Across Brain Regions
  </text>
  <text x="334" y="38" text-anchor="middle" font-size="10" fill="#666">
    Allen Mouse Brain Atlas · ISH expression energy (row-normalized per gene)
  </text>
  <text x="334" y="53" text-anchor="middle" font-size="10" fill="#555">
    Spindle/oscillation genes (blue) · GABAergic (red) · Corticostriatal learning (green)
  </text>
  <rect x="311" y="52" width="72" height="372" fill="#f0f8ff" opacity="0.65"/><rect x="95" y="52" width="72" height="372" fill="#fff8f0" opacity="0.65"/><rect x="239" y="52" width="72" height="372" fill="#f5fff0" opacity="0.65"/><defs><linearGradient id="cb1" x1="0" y1="1" x2="0" y2="0"><stop offset="0%" stop-color="rgb(215,230,255)"/><stop offset="50%" stop-color="rgb(255,255,255)"/><stop offset="100%" stop-color="rgb(255,100,20)"/></linearGradient></defs><rect x="609" y="108" width="13" height="312" fill="url(#cb1)" stroke="#ccc" stroke-width="0.5"/><text x="615" y="104" text-anchor="middle" font-size="8" fill="#555">high</text><text x="615" y="430" text-anchor="middle" font-size="8" fill="#555">low</text><text x="131" y="77" text-anchor="middle" font-size="10" fill="#c05000" font-weight="bold">Motor</text><text x="131" y="90" text-anchor="middle" font-size="10" fill="#c05000" font-weight="bold">cortex</text><text x="131" y="104" text-anchor="middle" font-size="8.5" fill="#c05000" font-style="italic">↑ slow osc.</text><text x="203" y="90" text-anchor="middle" font-size="10" fill="#444" font-weight="normal">PFC</text><text x="275" y="90" text-anchor="middle" font-size="10" fill="#1a6b3a" font-weight="bold">Striatum</text><text x="275" y="104" text-anchor="middle" font-size="8.5" fill="#1a6b3a" font-style="italic">↑ learning</text><text x="347" y="90" text-anchor="middle" font-size="10" fill="#1a5c8a" font-weight="bold">Thalamus</text><text x="347" y="104" text-anchor="middle" font-size="8.5" fill="#1a5c8a" font-style="italic">↑ spindles</text><text x="419" y="90" text-anchor="middle" font-size="10" fill="#444" font-weight="normal">Hippocampus</text><text x="491" y="77" text-anchor="middle" font-size="10" fill="#444" font-weight="normal">Subst.</text><text x="491" y="90" text-anchor="middle" font-size="10" fill="#444" font-weight="normal">nigra</text><text x="563" y="90" text-anchor="middle" font-size="10" fill="#444" font-weight="normal">Midbrain</text><rect x="95" y="108" width="72" height="26" fill="rgb(255,231,219)" stroke="white" stroke-width="1.5"/><rect x="167" y="108" width="72" height="26" fill="rgb(255,237,227)" stroke="white" stroke-width="1.5"/><rect x="239" y="108" width="72" height="26" fill="rgb(215,230,255)" stroke="white" stroke-width="1.5"/><rect x="311" y="108" width="72" height="26" fill="rgb(255,100,20)" stroke="white" stroke-width="1.5"/><text x="347" y="125" text-anchor="middle" font-size="8" fill="white">13.2</text><rect x="383" y="108" width="72" height="26" fill="rgb(242,247,255)" stroke="white" stroke-width="1.5"/><rect x="455" y="108" width="72" height="26" fill="rgb(252,253,255)" stroke="white" stroke-width="1.5"/><rect x="527" y="108" width="72" height="26" fill="rgb(251,252,255)" stroke="white" stroke-width="1.5"/><rect x="95" y="134" width="72" height="26" fill="rgb(248,250,255)" stroke="white" stroke-width="1.5"/><rect x="167" y="134" width="72" height="26" fill="rgb(225,236,255)" stroke="white" stroke-width="1.5"/><rect x="239" y="134" width="72" height="26" fill="rgb(255,100,20)" stroke="white" stroke-width="1.5"/><text x="275" y="151" text-anchor="middle" font-size="8" fill="white">11.1</text><rect x="311" y="134" width="72" height="26" fill="rgb(215,230,255)" stroke="white" stroke-width="1.5"/><rect x="383" y="134" width="72" height="26" fill="rgb(255,125,58)" stroke="white" stroke-width="1.5"/><text x="419" y="151" text-anchor="middle" font-size="8" fill="white">10.6</text><rect x="455" y="134" width="72" height="26" fill="rgb(217,231,255)" stroke="white" stroke-width="1.5"/><rect x="527" y="134" width="72" height="26" fill="rgb(217,231,255)" stroke="white" stroke-width="1.5"/><rect x="95" y="160" width="72" height="26" fill="rgb(255,100,20)" stroke="white" stroke-width="1.5"/><text x="131" y="177" text-anchor="middle" font-size="8" fill="white">7.1</text><rect x="167" y="160" width="72" height="26" fill="rgb(255,232,220)" stroke="white" stroke-width="1.5"/><rect x="239" y="160" width="72" height="26" fill="rgb(218,232,255)" stroke="white" stroke-width="1.5"/><rect x="311" y="160" width="72" height="26" fill="rgb(215,230,255)" stroke="white" stroke-width="1.5"/><rect x="383" y="160" width="72" height="26" fill="rgb(255,155,104)" stroke="white" stroke-width="1.5"/><text x="419" y="177" text-anchor="middle" font-size="8" fill="#333">5.9</text><rect x="455" y="160" width="72" height="26" fill="rgb(220,233,255)" stroke="white" stroke-width="1.5"/><rect x="527" y="160" width="72" height="26" fill="rgb(233,241,255)" stroke="white" stroke-width="1.5"/><rect x="95" y="186" width="72" height="26" fill="rgb(255,100,20)" stroke="white" stroke-width="1.5"/><text x="131" y="203" text-anchor="middle" font-size="8" fill="white">4.4</text><rect x="167" y="186" width="72" height="26" fill="rgb(255,203,177)" stroke="white" stroke-width="1.5"/><rect x="239" y="186" width="72" height="26" fill="rgb(222,234,255)" stroke="white" stroke-width="1.5"/><rect x="311" y="186" width="72" height="26" fill="rgb(232,241,255)" stroke="white" stroke-width="1.5"/><rect x="383" y="186" width="72" height="26" fill="rgb(255,148,93)" stroke="white" stroke-width="1.5"/><text x="419" y="203" text-anchor="middle" font-size="8" fill="#333">3.8</text><rect x="455" y="186" width="72" height="26" fill="rgb(215,230,255)" stroke="white" stroke-width="1.5"/><rect x="527" y="186" width="72" height="26" fill="rgb(220,233,255)" stroke="white" stroke-width="1.5"/><rect x="95" y="212" width="72" height="26" fill="rgb(241,246,255)" stroke="white" stroke-width="1.5"/><rect x="167" y="212" width="72" height="26" fill="rgb(240,246,255)" stroke="white" stroke-width="1.5"/><rect x="239" y="212" width="72" height="26" fill="rgb(255,100,20)" stroke="white" stroke-width="1.5"/><text x="275" y="229" text-anchor="middle" font-size="8" fill="white">13.4</text><rect x="311" y="212" width="72" height="26" fill="rgb(215,230,255)" stroke="white" stroke-width="1.5"/><rect x="383" y="212" width="72" height="26" fill="rgb(244,248,255)" stroke="white" stroke-width="1.5"/><rect x="455" y="212" width="72" height="26" fill="rgb(255,181,143)" stroke="white" stroke-width="1.5"/><rect x="527" y="212" width="72" height="26" fill="rgb(255,237,228)" stroke="white" stroke-width="1.5"/><rect x="95" y="238" width="72" height="26" fill="rgb(218,232,255)" stroke="white" stroke-width="1.5"/><rect x="167" y="238" width="72" height="26" fill="rgb(223,235,255)" stroke="white" stroke-width="1.5"/><rect x="239" y="238" width="72" height="26" fill="rgb(255,100,20)" stroke="white" stroke-width="1.5"/><text x="275" y="255" text-anchor="middle" font-size="8" fill="white">14.6</text><rect x="311" y="238" width="72" height="26" fill="rgb(215,230,255)" stroke="white" stroke-width="1.5"/><rect x="383" y="238" width="72" height="26" fill="rgb(220,233,255)" stroke="white" stroke-width="1.5"/><rect x="455" y="238" width="72" height="26" fill="rgb(255,180,142)" stroke="white" stroke-width="1.5"/><rect x="527" y="238" width="72" height="26" fill="rgb(255,237,228)" stroke="white" stroke-width="1.5"/><rect x="95" y="264" width="72" height="26" fill="rgb(255,200,172)" stroke="white" stroke-width="1.5"/><rect x="167" y="264" width="72" height="26" fill="rgb(247,250,255)" stroke="white" stroke-width="1.5"/><rect x="239" y="264" width="72" height="26" fill="rgb(215,230,255)" stroke="white" stroke-width="1.5"/><rect x="311" y="264" width="72" height="26" fill="rgb(255,200,172)" stroke="white" stroke-width="1.5"/><rect x="383" y="264" width="72" height="26" fill="rgb(234,242,255)" stroke="white" stroke-width="1.5"/><rect x="455" y="264" width="72" height="26" fill="rgb(255,140,81)" stroke="white" stroke-width="1.5"/><text x="491" y="281" text-anchor="middle" font-size="8" fill="#333">7.3</text><rect x="527" y="264" width="72" height="26" fill="rgb(255,100,20)" stroke="white" stroke-width="1.5"/><text x="563" y="281" text-anchor="middle" font-size="8" fill="white">8.2</text><rect x="95" y="290" width="72" height="26" fill="rgb(255,169,124)" stroke="white" stroke-width="1.5"/><rect x="167" y="290" width="72" height="26" fill="rgb(255,100,20)" stroke="white" stroke-width="1.5"/><text x="203" y="307" text-anchor="middle" font-size="8" fill="white">4.3</text><rect x="239" y="290" width="72" height="26" fill="rgb(216,230,255)" stroke="white" stroke-width="1.5"/><rect x="311" y="290" width="72" height="26" fill="rgb(230,239,255)" stroke="white" stroke-width="1.5"/><rect x="383" y="290" width="72" height="26" fill="rgb(255,101,22)" stroke="white" stroke-width="1.5"/><text x="419" y="307" text-anchor="middle" font-size="8" fill="white">4.3</text><rect x="455" y="290" width="72" height="26" fill="rgb(215,230,255)" stroke="white" stroke-width="1.5"/><rect x="527" y="290" width="72" height="26" fill="rgb(253,254,255)" stroke="white" stroke-width="1.5"/><rect x="95" y="316" width="72" height="26" fill="rgb(217,231,255)" stroke="white" stroke-width="1.5"/><rect x="167" y="316" width="72" height="26" fill="rgb(219,232,255)" stroke="white" stroke-width="1.5"/><rect x="239" y="316" width="72" height="26" fill="rgb(255,100,20)" stroke="white" stroke-width="1.5"/><text x="275" y="333" text-anchor="middle" font-size="8" fill="white">21.5</text><rect x="311" y="316" width="72" height="26" fill="rgb(216,230,255)" stroke="white" stroke-width="1.5"/><rect x="383" y="316" width="72" height="26" fill="rgb(218,232,255)" stroke="white" stroke-width="1.5"/><rect x="455" y="316" width="72" height="26" fill="rgb(215,230,255)" stroke="white" stroke-width="1.5"/><rect x="527" y="316" width="72" height="26" fill="rgb(216,231,255)" stroke="white" stroke-width="1.5"/><rect x="95" y="342" width="72" height="26" fill="rgb(227,237,255)" stroke="white" stroke-width="1.5"/><rect x="167" y="342" width="72" height="26" fill="rgb(215,230,255)" stroke="white" stroke-width="1.5"/><rect x="239" y="342" width="72" height="26" fill="rgb(255,100,20)" stroke="white" stroke-width="1.5"/><text x="275" y="359" text-anchor="middle" font-size="8" fill="white">10.9</text><rect x="311" y="342" width="72" height="26" fill="rgb(215,230,255)" stroke="white" stroke-width="1.5"/><rect x="383" y="342" width="72" height="26" fill="rgb(215,230,255)" stroke="white" stroke-width="1.5"/><rect x="455" y="342" width="72" height="26" fill="rgb(255,240,232)" stroke="white" stroke-width="1.5"/><rect x="527" y="342" width="72" height="26" fill="rgb(220,233,255)" stroke="white" stroke-width="1.5"/><rect x="95" y="368" width="72" height="26" fill="rgb(242,247,255)" stroke="white" stroke-width="1.5"/><rect x="167" y="368" width="72" height="26" fill="rgb(235,242,255)" stroke="white" stroke-width="1.5"/><rect x="239" y="368" width="72" height="26" fill="rgb(255,100,20)" stroke="white" stroke-width="1.5"/><text x="275" y="385" text-anchor="middle" font-size="8" fill="white">14.7</text><rect x="311" y="368" width="72" height="26" fill="rgb(220,233,255)" stroke="white" stroke-width="1.5"/><rect x="383" y="368" width="72" height="26" fill="rgb(227,237,255)" stroke="white" stroke-width="1.5"/><rect x="455" y="368" width="72" height="26" fill="rgb(215,230,255)" stroke="white" stroke-width="1.5"/><rect x="527" y="368" width="72" height="26" fill="rgb(216,231,255)" stroke="white" stroke-width="1.5"/><rect x="95" y="394" width="72" height="26" fill="rgb(255,133,70)" stroke="white" stroke-width="1.5"/><text x="131" y="411" text-anchor="middle" font-size="8" fill="#333">33.6</text><rect x="167" y="394" width="72" height="26" fill="rgb(255,100,20)" stroke="white" stroke-width="1.5"/><text x="203" y="411" text-anchor="middle" font-size="8" fill="white">37.6</text><rect x="239" y="394" width="72" height="26" fill="rgb(223,235,255)" stroke="white" stroke-width="1.5"/><rect x="311" y="394" width="72" height="26" fill="rgb(233,241,255)" stroke="white" stroke-width="1.5"/><rect x="383" y="394" width="72" height="26" fill="rgb(255,194,162)" stroke="white" stroke-width="1.5"/><rect x="455" y="394" width="72" height="26" fill="rgb(215,230,255)" stroke="white" stroke-width="1.5"/><rect x="527" y="394" width="72" height="26" fill="rgb(223,235,255)" stroke="white" stroke-width="1.5"/><line x1="95" y1="212" x2="599" y2="212" stroke="#bbb" stroke-width="1.5"/><line x1="95" y1="316" x2="599" y2="316" stroke="#bbb" stroke-width="1.5"/><line x1="95" y1="420" x2="599" y2="420" stroke="#bbb" stroke-width="1.5"/><text x="90" y="125" text-anchor="end" font-size="10.5" fill="#2980b9" font-weight="600" font-family="ui-monospace,Menlo,monospace">Cacna1g</text><text x="90" y="151" text-anchor="end" font-size="10.5" fill="#2980b9" font-weight="600" font-family="ui-monospace,Menlo,monospace">Cacna1h</text><text x="90" y="177" text-anchor="end" font-size="10.5" fill="#2980b9" font-weight="600" font-family="ui-monospace,Menlo,monospace">Hcn1</text><text x="90" y="203" text-anchor="end" font-size="10.5" fill="#2980b9" font-weight="600" font-family="ui-monospace,Menlo,monospace">Kcnq2</text><text x="90" y="229" text-anchor="end" font-size="10.5" fill="#c0392b" font-weight="600" font-family="ui-monospace,Menlo,monospace">Gad1</text><text x="90" y="255" text-anchor="end" font-size="10.5" fill="#c0392b" font-weight="600" font-family="ui-monospace,Menlo,monospace">Gad2</text><text x="90" y="281" text-anchor="end" font-size="10.5" fill="#c0392b" font-weight="600" font-family="ui-monospace,Menlo,monospace">Pvalb</text><text x="90" y="307" text-anchor="end" font-size="10.5" fill="#c0392b" font-weight="600" font-family="ui-monospace,Menlo,monospace">Sst</text><text x="90" y="333" text-anchor="end" font-size="10.5" fill="#27ae60" font-weight="600" font-family="ui-monospace,Menlo,monospace">Drd1</text><text x="90" y="359" text-anchor="end" font-size="10.5" fill="#27ae60" font-weight="600" font-family="ui-monospace,Menlo,monospace">Drd2</text><text x="90" y="385" text-anchor="end" font-size="10.5" fill="#27ae60" font-weight="600" font-family="ui-monospace,Menlo,monospace">Foxp1</text><text x="90" y="411" text-anchor="end" font-size="10.5" fill="#27ae60" font-weight="600" font-family="ui-monospace,Menlo,monospace">Slc17a7</text>
</svg>