<svg viewBox="0 0 700 400" xmlns="http://www.w3.org/2000/svg"
     style="font-family:-apple-system,system-ui,sans-serif;background:white;">
  <text x="350" y="22" text-anchor="middle" font-size="13" font-weight="600" fill="#222">
    Three Circuits — Spindle Generation, Corticostriatal Learning, GABAergic Consolidation
  </text>
  <text x="350" y="38" text-anchor="middle" font-size="10" fill="#666">
    Raw ISH expression energy for key genes in their highest-expressing region (Allen Mouse Brain Atlas)
  </text>
  <rect x="20" y="85" width="203" height="250" fill="#fafafa" rx="6" stroke="#e0e0e0" stroke-width="1"/><text x="121" y="72" text-anchor="middle" font-size="11" font-weight="600" fill="#222">Thalamocortical spindles</text><text x="121" y="84" text-anchor="middle" font-size="8.5" fill="#777" font-style="italic">Cacna1g (thalamus) drives spindle</text><text x="121" y="96" text-anchor="middle" font-size="8.5" fill="#777" font-style="italic">Hcn1 (motor ctx) sets rebound</text><rect x="38.6" y="121.3" width="30.1" height="208.7" fill="#1a5c8a" opacity="0.88" rx="3"/><text x="53.7" y="117.3" text-anchor="middle" font-size="9" fill="#1a5c8a">13.2</text><text transform="rotate(-40,53.7,344)" x="53.7" y="344" text-anchor="end" font-size="9.5" fill="#1a5c8a" font-family="ui-monospace,Menlo,monospace">Cacna1g</text><text transform="rotate(-40,53.7,358)" x="53.7" y="358" text-anchor="end" font-size="8" fill="#888">[Thalamus]</text><rect x="84.9" y="217.8" width="30.1" height="112.2" fill="#2980b9" opacity="0.88" rx="3"/><text x="99.9" y="213.8" text-anchor="middle" font-size="9" fill="#2980b9">7.1</text><text transform="rotate(-40,99.9,344)" x="99.9" y="344" text-anchor="end" font-size="9.5" fill="#2980b9" font-family="ui-monospace,Menlo,monospace">Hcn1</text><text transform="rotate(-40,99.9,358)" x="99.9" y="358" text-anchor="end" font-size="8" fill="#888">[M1]</text><rect x="131.1" y="252.6" width="30.1" height="77.4" fill="#5dade2" opacity="0.88" rx="3"/><text x="146.2" y="248.6" text-anchor="middle" font-size="9" fill="#5dade2">4.9</text><text transform="rotate(-40,146.2,344)" x="146.2" y="344" text-anchor="end" font-size="9.5" fill="#5dade2" font-family="ui-monospace,Menlo,monospace">Cacna1h</text><text transform="rotate(-40,146.2,358)" x="146.2" y="358" text-anchor="end" font-size="8" fill="#888">[Thalamus]</text><rect x="177.4" y="260.0" width="30.1" height="70.0" fill="#85c1e9" opacity="0.88" rx="3"/><text x="192.4" y="256.0" text-anchor="middle" font-size="9" fill="#85c1e9">4.4</text><text transform="rotate(-40,192.4,344)" x="192.4" y="344" text-anchor="end" font-size="9.5" fill="#85c1e9" font-family="ui-monospace,Menlo,monospace">Kcnq2</text><text transform="rotate(-40,192.4,358)" x="192.4" y="358" text-anchor="end" font-size="8" fill="#888">[M1]</text><line x1="32" y1="90" x2="32" y2="330" stroke="#ccc" stroke-width="1"/><line x1="32" y1="330" x2="221" y2="330" stroke="#ccc" stroke-width="1"/><text x="121" y="385" text-anchor="middle" font-size="8.5" fill="#555">Thalamus = spindle pacemaker</text><text x="121" y="397" text-anchor="middle" font-size="8.5" fill="#555">Motor ctx = slow-osc recipient</text><rect x="233" y="85" width="203" height="250" fill="#fafafa" rx="6" stroke="#e0e0e0" stroke-width="1"/><text x="334" y="72" text-anchor="middle" font-size="11" font-weight="600" fill="#222">Corticostriatal reversal</text><text x="334" y="84" text-anchor="middle" font-size="8.5" fill="#777" font-style="italic">PFC→striatum during learning;</text><text x="334" y="96" text-anchor="middle" font-size="8.5" fill="#777" font-style="italic">reversal marks consolidation</text><rect x="251.6" y="121.3" width="30.1" height="208.7" fill="#1a6b3a" opacity="0.88" rx="3"/><text x="266.7" y="117.3" text-anchor="middle" font-size="9" fill="#1a6b3a">37.6</text><text transform="rotate(-40,266.7,344)" x="266.7" y="344" text-anchor="end" font-size="9.5" fill="#1a6b3a" font-family="ui-monospace,Menlo,monospace">Slc17a7</text><text transform="rotate(-40,266.7,358)" x="266.7" y="358" text-anchor="end" font-size="8" fill="#888">[PFC]</text><rect x="297.9" y="210.7" width="30.1" height="119.3" fill="#27ae60" opacity="0.88" rx="3"/><text x="312.9" y="206.7" text-anchor="middle" font-size="9" fill="#27ae60">21.5</text><text transform="rotate(-40,312.9,344)" x="312.9" y="344" text-anchor="end" font-size="9.5" fill="#27ae60" font-family="ui-monospace,Menlo,monospace">Drd1</text><text transform="rotate(-40,312.9,358)" x="312.9" y="358" text-anchor="end" font-size="8" fill="#888">[Striatum]</text><rect x="344.1" y="248.4" width="30.1" height="81.6" fill="#52be80" opacity="0.88" rx="3"/><text x="359.2" y="244.4" text-anchor="middle" font-size="9" fill="#52be80">14.7</text><text transform="rotate(-40,359.2,344)" x="359.2" y="344" text-anchor="end" font-size="9.5" fill="#52be80" font-family="ui-monospace,Menlo,monospace">Foxp1</text><text transform="rotate(-40,359.2,358)" x="359.2" y="358" text-anchor="end" font-size="8" fill="#888">[Striatum]</text><rect x="390.4" y="269.5" width="30.1" height="60.5" fill="#7dcea0" opacity="0.88" rx="3"/><text x="405.4" y="265.5" text-anchor="middle" font-size="9" fill="#7dcea0">10.9</text><text transform="rotate(-40,405.4,344)" x="405.4" y="344" text-anchor="end" font-size="9.5" fill="#7dcea0" font-family="ui-monospace,Menlo,monospace">Drd2</text><text transform="rotate(-40,405.4,358)" x="405.4" y="358" text-anchor="end" font-size="8" fill="#888">[Striatum]</text><line x1="245" y1="90" x2="245" y2="330" stroke="#ccc" stroke-width="1"/><line x1="245" y1="330" x2="434" y2="330" stroke="#ccc" stroke-width="1"/><text x="334" y="385" text-anchor="middle" font-size="8.5" fill="#555">VGLUT1 in PFC = cortical drive</text><text x="334" y="397" text-anchor="middle" font-size="8.5" fill="#555">DRD1/FOXP1 = striatal recipients</text><rect x="446" y="85" width="203" height="250" fill="#fafafa" rx="6" stroke="#e0e0e0" stroke-width="1"/><text x="547" y="72" text-anchor="middle" font-size="11" font-weight="600" fill="#222">GABAergic consolidation</text><text x="547" y="84" text-anchor="middle" font-size="8.5" fill="#777" font-style="italic">GABA gates sleep spindle coupling;</text><text x="547" y="96" text-anchor="middle" font-size="8.5" fill="#777" font-style="italic">stroke disrupts this balance</text><rect x="464.6" y="139.3" width="30.1" height="190.7" fill="#922b21" opacity="0.88" rx="3"/><text x="479.7" y="135.3" text-anchor="middle" font-size="9" fill="#922b21">13.4</text><text transform="rotate(-40,479.7,344)" x="479.7" y="344" text-anchor="end" font-size="9.5" fill="#922b21" font-family="ui-monospace,Menlo,monospace">Gad1</text><text transform="rotate(-40,479.7,358)" x="479.7" y="358" text-anchor="end" font-size="8" fill="#888">[Striatum]</text><rect x="510.9" y="121.3" width="30.1" height="208.7" fill="#c0392b" opacity="0.88" rx="3"/><text x="525.9" y="117.3" text-anchor="middle" font-size="9" fill="#c0392b">14.6</text><text transform="rotate(-40,525.9,344)" x="525.9" y="344" text-anchor="end" font-size="9.5" fill="#c0392b" font-family="ui-monospace,Menlo,monospace">Gad2</text><text transform="rotate(-40,525.9,358)" x="525.9" y="358" text-anchor="end" font-size="8" fill="#888">[Striatum]</text><rect x="557.1" y="242.6" width="30.1" height="87.4" fill="#e74c3c" opacity="0.88" rx="3"/><text x="572.2" y="238.6" text-anchor="middle" font-size="9" fill="#e74c3c">6.1</text><text transform="rotate(-40,572.2,344)" x="572.2" y="344" text-anchor="end" font-size="9.5" fill="#e74c3c" font-family="ui-monospace,Menlo,monospace">Pvalb</text><text transform="rotate(-40,572.2,358)" x="572.2" y="358" text-anchor="end" font-size="8" fill="#888">[M1]</text><rect x="603.4" y="268.9" width="30.1" height="61.1" fill="#f1948a" opacity="0.88" rx="3"/><text x="618.4" y="264.9" text-anchor="middle" font-size="9" fill="#f1948a">4.3</text><text transform="rotate(-40,618.4,344)" x="618.4" y="344" text-anchor="end" font-size="9.5" fill="#f1948a" font-family="ui-monospace,Menlo,monospace">Sst</text><text transform="rotate(-40,618.4,358)" x="618.4" y="358" text-anchor="end" font-size="8" fill="#888">[PFC]</text><line x1="458" y1="90" x2="458" y2="330" stroke="#ccc" stroke-width="1"/><line x1="458" y1="330" x2="647" y2="330" stroke="#ccc" stroke-width="1"/><text x="547" y="385" text-anchor="middle" font-size="8.5" fill="#555">Striatum = massive GABA output</text><text x="547" y="397" text-anchor="middle" font-size="8.5" fill="#555">PV/SST = cortical IN subtypes</text>
</svg>